<svg width="222" height="80" viewBox="0 0 222 80" fill="none" xmlns="http://www.w3.org/2000/svg">
<g clip-path="url(#clip0_30_280)">
<path d="M66.2334 0C57.3573 15.3302 22.3592 76.7066 20.4771 80H14.7463L24.4375 62.7781L11.5023 39.5586L11.4882 39.5305C10.7016 38.2131 6.7417 31.5431 5.63214 30.0016C5.49169 29.8054 5.37878 29.6095 5.25238 29.4133C4.47994 28.1942 3.8622 27.2131 0 26.4984H8.56683C8.73536 26.4984 12.5834 26.5967 14.0721 29.1609C15.4766 31.5852 25.7713 49.6481 28.7346 54.8469L59.9553 0H66.2334Z" fill="#0C0D0C"/>
<path d="M128.829 31.725C127.368 30.2399 125.205 29.6797 121.091 29.6797H111.204V41.6328H118.9C122.453 41.6328 124.321 41.2122 125.81 40.0352V46.4672C124.504 45.2901 122.607 44.8695 118.9 44.8695H111.204V57.1727H121.863C125.978 57.1726 128.155 56.4581 129.602 54.5523V60.3961H104.435C105.488 58.8126 105.853 56.8786 105.853 53.0391V33.6172C105.853 29.9598 105.474 28.0397 104.435 26.4563H128.829V31.725Z" fill="#0C0D0C"/>
<path fill-rule="evenodd" clip-rule="evenodd" d="M158.561 26.4563C166.117 26.4563 170.99 29.9175 170.991 35.2563C170.991 39.32 168.013 42.473 163.013 43.6781L162.41 43.8188L176.117 60.3961H169.375L156.651 44.4773L156.595 44.4211H152.902V53.0953C152.902 56.8786 153.253 58.7987 154.264 60.3961H146.188C147.241 58.8127 147.607 56.8926 147.607 53.0953V33.6172C147.607 29.9598 147.227 28.0397 146.188 26.4563H158.561ZM152.888 41.282H157.578C162.536 41.282 165.373 39.1099 165.373 35.3125C165.373 31.6132 162.62 29.5813 157.634 29.5813H152.888V41.282Z" fill="#0C0D0C"/>
<path fill-rule="evenodd" clip-rule="evenodd" d="M218.236 53.0812C219.345 55.7851 220.033 57.3124 220.356 57.9992C220.778 58.84 221.326 59.6394 222 60.3961H213.433C213.742 59.7515 213.883 59.0364 213.883 58.2797C213.883 56.9625 213.433 55.1686 212.534 52.9406L211.565 50.5586H196.762L195.849 52.9547C195.035 55.0286 194.655 56.6267 194.655 57.9859C194.655 58.9106 194.838 59.7236 195.217 60.3961H188.209C189.501 59.0229 190.274 57.3271 191.369 54.4266L202.563 26.4422H207.253L218.236 53.0812ZM198.125 47.1117L198.054 47.3219H210.287L204.501 32.8742H203.714L198.125 47.1117Z" fill="#0C0D0C"/>
<path fill-rule="evenodd" clip-rule="evenodd" d="M76.1423 26.3406C83.67 26.3407 88.1645 29.382 88.1645 34.4547C88.1643 38.1259 85.2986 41.0262 80.6641 42.0211L79.2602 42.3859V42.7359C79.7657 42.848 80.3833 42.9743 80.6923 43.0164C86.3522 43.9553 89.9059 46.814 89.9059 50.9898C89.9057 56.5528 84.8074 60.2945 77.2095 60.2945H62.7999C63.9515 58.5289 64.1623 56.4127 64.1624 52.9797V33.5992C64.1623 30.2083 63.9515 28.1062 62.7999 26.3406H76.1423ZM69.4711 57.1555H75.2716C80.9735 57.1554 84.2456 54.7728 84.2456 50.625C84.2455 46.3933 81.1836 44.2492 75.1166 44.2492H69.4711V57.1555ZM69.4711 41.1242H74.9623C80.0043 41.1242 82.6725 39.0643 82.6725 35.1547C82.6724 31.4975 79.9339 29.4797 74.9623 29.4797H69.4711V41.1242Z" fill="#0C0D0C"/>
</g>
<defs>
<clipPath id="clip0_30_280">
<rect width="222" height="80" fill="white"/>
</clipPath>
</defs>
</svg>
