<svg width="512" height="512" viewBox="0 0 512 512" fill="none" xmlns="http://www.w3.org/2000/svg">
<path d="M490.157 247.092C490.157 162.754 385.357 94 256.12 94C126.883 94 22 162.754 22 247.092C22 249.281 22 255.293 22 256.069C22 345.547 113.598 418 256.12 418C399.46 418 490.24 345.561 490.24 256.069L490.157 247.092Z" fill="#2D3277"/>
<path d="M481.194 247.023C481.194 326.527 380.425 390.986 256.12 390.986C131.815 390.986 31.0601 326.527 31.0601 247.023C31.0601 167.519 131.829 103.032 256.12 103.032C380.412 103.032 481.194 167.505 481.194 247.023Z" fill="#F7D032"/>
<path d="M181.396 201.598C181.285 201.82 179.041 204.147 180.481 206.017C184.042 210.547 195.013 213.152 206.11 210.658C212.704 209.176 221.182 202.443 229.369 195.946C238.263 188.881 247.088 181.816 255.94 178.99C265.332 175.997 271.345 177.286 275.335 178.491C279.698 179.793 284.824 182.647 292.984 188.798C308.402 200.365 370.326 254.421 381.021 263.772C412.889 249.952 446.031 239.281 479.975 231.909C475.445 204.203 458.585 178.782 432.971 158.002C397.299 172.991 353.702 180.805 311.062 159.983C310.84 159.9 287.775 148.9 265.014 149.51C231.184 150.3 216.527 164.943 201.04 180.43L181.396 201.598Z" fill="white"/>
<path d="M378.486 269.645C377.765 268.994 305.687 205.92 289.34 193.646C279.906 186.554 274.642 184.753 269.114 184.06C265.882 183.79 262.627 184.095 259.5 184.96C251.964 187.038 241.962 193.743 233.151 200.67C224.022 207.943 215.405 214.8 207.412 216.574C197.216 218.873 184.748 216.172 179.068 212.335C177.044 211.089 175.411 209.298 174.358 207.167C172.266 202.291 176.131 198.398 176.769 197.747L196.662 176.233C198.975 173.919 201.303 171.62 203.685 169.306C197.552 170.245 191.495 171.634 185.565 173.462C178.362 175.485 171.421 177.41 164.411 177.41C157.157 176.674 149.947 175.545 142.814 174.03C123.069 168.935 103.851 161.977 85.4201 153.25C57.1318 174.349 38.2221 200.67 32.7639 229.623C36.8229 230.704 43.3755 232.643 46.1185 233.253C110.107 247.48 130.055 262.137 133.671 265.199C135.796 262.795 138.44 260.906 141.402 259.675C144.364 258.443 147.567 257.901 150.77 258.089C153.973 258.277 157.09 259.191 159.888 260.761C162.686 262.331 165.09 264.516 166.919 267.152C171.23 263.664 176.612 261.771 182.157 261.791C185.272 261.82 188.36 262.358 191.301 263.384C194.151 264.302 196.774 265.815 198.995 267.824C201.216 269.832 202.985 272.29 204.184 275.034C206.979 273.758 210.02 273.11 213.092 273.136C216.762 273.184 220.384 273.985 223.731 275.492C235.534 280.548 237.363 292.115 236.296 300.871C237.142 300.775 237.993 300.729 238.845 300.732C243.238 300.723 247.559 301.857 251.382 304.022C255.205 306.187 258.399 309.309 260.652 313.081C262.904 316.853 264.136 321.147 264.228 325.539C264.32 329.932 263.269 334.273 261.176 338.136C264.972 340.269 274.683 345.063 283.203 344.051C290.005 343.179 292.596 340.851 293.524 339.549C294.147 338.635 294.826 337.61 294.203 336.778L276.193 316.719C276.193 316.719 273.229 313.948 274.212 312.826C275.196 311.704 277.052 313.311 278.368 314.391C287.567 322.066 298.788 333.647 298.788 333.647C298.788 333.647 299.73 335.241 303.872 335.989C307.432 336.64 313.75 336.252 318.141 332.664C319.27 331.713 320.304 330.655 321.23 329.505C321.173 329.569 321.108 329.625 321.036 329.672C325.636 323.756 320.51 317.785 320.51 317.785L299.439 294.11C299.439 294.11 296.419 291.34 297.444 290.204C298.469 289.068 300.312 290.702 301.6 291.797C308.291 297.338 317.712 306.841 326.758 315.694C328.517 316.982 336.455 321.9 346.984 314.987C353.37 310.831 354.644 305.664 354.464 301.771C354.007 298.428 352.441 295.336 350.017 292.988L321.23 263.993C321.23 263.993 318.183 261.403 319.263 260.087C320.15 258.978 322.117 260.572 323.419 261.652C332.604 269.327 357.429 292.129 357.429 292.129C357.775 292.365 366.364 298.474 376.976 291.728C378.803 290.658 380.343 289.16 381.46 287.361C382.578 285.563 383.24 283.519 383.39 281.407C383.474 279.218 383.086 277.038 382.252 275.013C381.418 272.988 380.157 271.167 378.555 269.673" fill="white"/>
<path d="M238.804 306.343C234.343 306.343 229.467 308.947 228.829 308.559C228.455 308.324 229.092 306.537 229.522 305.498C229.951 304.459 235.825 286.782 221.487 280.631C210.529 275.921 203.81 281.213 201.497 283.623C200.915 284.247 200.638 284.191 200.569 283.388C200.347 280.202 198.934 271.585 189.486 268.703C175.979 264.547 167.321 273.995 165.063 277.403C164.612 273.908 162.996 270.666 160.476 268.202C157.955 265.738 154.678 264.197 151.173 263.825C147.668 263.454 144.14 264.276 141.159 266.158C138.179 268.039 135.92 270.87 134.748 274.194C133.575 277.518 133.558 281.14 134.698 284.475C135.838 287.81 138.069 290.663 141.031 292.574C143.993 294.484 147.513 295.34 151.022 295.003C154.53 294.666 157.822 293.156 160.366 290.716C160.45 290.813 160.491 290.952 160.45 291.257C159.785 295.135 158.579 309.266 173.347 315.001C179.276 317.287 184.319 315.597 188.489 312.646C189.735 311.773 189.874 312.147 189.763 313.325C189.223 316.954 189.902 324.712 200.846 329.145C209.158 332.512 214.048 329.062 217.248 326.084C218.633 324.809 219.035 325.017 219.118 326.998C219.294 330.863 220.602 334.591 222.878 337.72C225.155 340.848 228.299 343.24 231.923 344.597C235.546 345.954 239.488 346.218 243.259 345.354C247.031 344.491 250.466 342.54 253.138 339.742C255.811 336.944 257.602 333.422 258.291 329.615C258.98 325.808 258.536 321.882 257.014 318.325C255.492 314.768 252.958 311.736 249.728 309.606C246.499 307.476 242.714 306.341 238.845 306.343" fill="white"/>
<path d="M238.804 344.439C234.08 344.464 229.531 342.654 226.117 339.39C222.703 336.125 220.69 331.663 220.504 326.943C220.504 326.098 220.393 323.867 218.509 323.867C217.646 323.964 216.851 324.379 216.278 325.031C215.121 326.268 213.732 327.265 212.189 327.963C210.646 328.662 208.98 329.05 207.288 329.104C205.246 329.062 203.233 328.625 201.358 327.815C190.913 323.59 190.774 316.414 191.204 313.533C191.303 313.159 191.318 312.767 191.249 312.386C191.179 312.006 191.027 311.645 190.802 311.33L190.179 310.762H189.514C188.846 310.808 188.211 311.065 187.699 311.496C185.151 313.458 182.048 314.564 178.833 314.655C177.137 314.641 175.459 314.307 173.887 313.671C160.131 308.324 161.212 295.343 161.877 291.506C161.95 291.179 161.934 290.839 161.832 290.52C161.73 290.201 161.544 289.915 161.295 289.691L160.311 288.888L159.411 289.76C157.112 292.016 154.12 293.43 150.917 293.773C147.715 294.116 144.491 293.368 141.767 291.649C139.043 289.931 136.98 287.343 135.91 284.305C134.841 281.267 134.829 277.957 135.875 274.912C136.922 271.866 138.966 269.263 141.677 267.524C144.388 265.785 147.606 265.013 150.811 265.332C154.016 265.65 157.019 267.042 159.334 269.281C161.649 271.519 163.141 274.474 163.567 277.667L164.065 281.504L166.171 278.248C166.407 277.874 172.183 269.147 182.795 269.161C184.896 269.17 186.984 269.497 188.987 270.13C197.452 272.707 198.879 280.382 199.1 283.582C199.266 285.438 200.583 285.521 200.846 285.521C201.165 285.499 201.476 285.411 201.76 285.264C202.043 285.116 202.293 284.911 202.494 284.662C203.853 283.247 205.487 282.124 207.295 281.362C209.102 280.599 211.047 280.214 213.009 280.229C215.724 280.285 218.401 280.888 220.878 282.003C234.329 287.779 228.234 304.86 228.164 305.041C227.001 307.811 226.959 309.113 228.054 309.834L228.566 310.097H228.968C229.862 309.987 230.738 309.758 231.572 309.418C233.858 308.506 236.277 307.973 238.734 307.839C241.185 307.772 243.623 308.196 245.907 309.087C248.19 309.978 250.272 311.318 252.029 313.027C253.785 314.736 255.182 316.78 256.135 319.038C257.089 321.296 257.58 323.723 257.58 326.174C257.58 328.625 257.089 331.051 256.135 333.309C255.182 335.567 253.785 337.611 252.029 339.32C250.272 341.029 248.19 342.369 245.907 343.26C243.623 344.151 241.185 344.576 238.734 344.509M381.215 262.165C359.05 242.77 307.682 198.163 293.787 187.745C285.905 181.691 280.502 178.505 275.736 177.12C272.862 176.216 269.869 175.749 266.857 175.734C263.01 175.778 259.192 176.413 255.538 177.618C246.562 180.472 237.626 187.579 228.968 194.45L228.525 194.81C220.462 201.224 212.122 207.86 205.819 209.273C203.058 209.886 200.238 210.198 197.41 210.201C190.359 210.201 184 208.151 181.617 205.117C181.23 204.618 181.479 203.732 182.407 202.637L182.518 202.485L202.093 181.442C217.331 166.203 231.835 151.699 265.097 150.965H266.76C287.456 150.965 308.167 160.246 310.48 161.327C328.988 170.569 349.363 175.459 370.049 175.623C391.051 175.623 412.718 170.428 435.492 159.942C432.943 157.808 430.302 155.721 427.568 153.68C407.578 162.352 388.502 166.73 370.105 166.716C350.719 166.557 331.628 161.951 314.304 153.25C313.348 152.793 290.476 142.015 266.704 142.002H264.834C236.892 142.653 221.141 152.572 210.557 161.271C200.264 161.521 191.384 164.042 183.474 166.203C176.436 168.17 170.355 169.874 164.398 169.86C161.96 169.86 157.554 169.639 157.166 169.625C150.337 169.417 115.911 160.981 88.5513 150.618C85.7806 152.595 83.0838 154.631 80.461 156.728C109.096 168.475 143.909 177.535 154.867 178.242C157.915 178.45 161.184 178.796 164.426 178.81C171.699 178.81 178.944 176.773 185.954 174.792C190.109 173.629 194.681 172.368 199.502 171.454C198.214 172.7 196.925 173.989 195.637 175.263L175.771 196.75C174.22 198.315 170.826 202.526 173.001 207.708C174.151 210.098 175.964 212.108 178.223 213.498C182.961 216.685 191.426 218.846 199.294 218.846C202.122 218.865 204.942 218.568 207.703 217.959C216.015 216.103 224.743 209.148 234.024 201.806C241.394 195.946 251.853 188.521 259.875 186.332C262.221 185.709 264.636 185.379 267.064 185.348C267.729 185.348 268.353 185.348 268.921 185.445C274.226 186.124 279.338 187.925 288.481 194.782C304.773 207.029 376.851 270.089 377.572 270.712C379.01 272.065 380.14 273.712 380.886 275.541C381.632 277.369 381.976 279.337 381.894 281.31C381.763 283.2 381.168 285.029 380.163 286.636C379.158 288.242 377.773 289.577 376.131 290.522C373.324 292.388 370.04 293.408 366.669 293.459C363.725 293.454 360.843 292.613 358.357 291.035C358.094 290.827 333.421 268.177 324.306 260.558C323.172 259.35 321.673 258.547 320.039 258.272C319.678 258.264 319.32 258.34 318.993 258.494C318.666 258.648 318.38 258.875 318.155 259.159C316.77 260.932 318.321 263.315 320.205 264.963L349.062 293.972C351.229 296.067 352.646 298.818 353.093 301.799C353.329 306.606 351.029 310.623 346.25 313.768C343.246 315.882 339.684 317.058 336.012 317.148C333.089 317.139 330.232 316.272 327.797 314.655L323.641 310.568C316.077 303.129 308.264 295.44 302.556 290.661C301.394 289.478 299.885 288.696 298.248 288.431C297.908 288.429 297.571 288.496 297.257 288.627C296.943 288.757 296.658 288.95 296.419 289.192C295.782 289.927 295.325 291.229 296.946 293.348C297.365 293.923 297.829 294.465 298.331 294.969L319.388 318.631C319.568 318.838 323.724 323.77 319.873 328.716L319.125 329.658C318.511 330.328 317.854 330.958 317.158 331.542C314.176 333.726 310.56 334.87 306.865 334.797C305.936 334.799 305.009 334.72 304.094 334.562C302.553 334.449 301.092 333.83 299.938 332.803L299.689 332.553C298.539 331.362 287.927 320.515 279.144 313.159C278.037 311.994 276.576 311.23 274.988 310.984C274.632 310.98 274.279 311.054 273.954 311.199C273.628 311.345 273.339 311.56 273.104 311.829C271.373 313.727 273.977 316.58 275.085 317.605L293.095 337.416C292.939 337.856 292.704 338.264 292.402 338.621C291.765 339.521 289.631 341.696 283.079 342.514C282.288 342.608 281.492 342.655 280.696 342.652C273.977 342.652 266.843 339.397 263.116 337.443C264.8 333.884 265.671 329.994 265.665 326.056C265.665 318.95 262.845 312.135 257.824 307.106C252.804 302.078 245.993 299.247 238.887 299.236H237.931C238.402 292.49 237.446 279.703 224.327 274.092C220.806 272.505 216.996 271.661 213.134 271.613C210.331 271.601 207.551 272.109 204.932 273.109C202.198 267.824 197.481 263.839 191.813 262.026C188.729 260.935 185.485 260.364 182.213 260.336C176.837 260.307 171.591 261.98 167.224 265.115C165.242 262.633 162.758 260.596 159.935 259.139C157.112 257.682 154.013 256.837 150.841 256.659C147.669 256.481 144.495 256.974 141.527 258.107C138.559 259.24 135.863 260.986 133.616 263.231C128.075 258.965 105.84 244.876 46.5066 231.369C43.6251 230.704 37.031 228.82 32.9997 227.629C32.3213 230.832 31.8127 234.069 31.4758 237.326C31.4758 237.326 42.4199 239.958 44.581 240.443C105.203 253.908 125.235 267.9 128.615 270.56C127.179 274.012 126.616 277.765 126.978 281.487C127.34 285.208 128.615 288.783 130.69 291.894C132.765 295.004 135.575 297.555 138.872 299.319C142.168 301.083 145.85 302.006 149.589 302.007C150.982 302.007 152.373 301.882 153.745 301.633C154.646 306.131 156.698 310.318 159.702 313.786C162.706 317.253 166.558 319.882 170.881 321.415C173.463 322.434 176.21 322.964 178.985 322.981C180.728 322.988 182.464 322.774 184.153 322.343C185.857 326.666 189.694 332.041 198.255 335.532C201.079 336.71 204.103 337.336 207.163 337.374C209.526 337.369 211.87 336.952 214.089 336.141C215.766 340.251 218.439 343.879 221.867 346.699C225.294 349.518 229.369 351.442 233.725 352.295C238.081 353.148 242.58 352.905 246.819 351.587C251.057 350.269 254.901 347.917 258.004 344.744C262.327 347.141 271.456 351.491 280.682 351.504C281.826 351.495 282.968 351.421 284.104 351.283C293.275 350.119 297.542 346.545 299.495 343.76C299.854 343.272 300.169 342.753 300.437 342.209C302.794 342.934 305.244 343.316 307.71 343.345C313.035 343.24 318.181 341.402 322.367 338.108C327.118 334.673 330.512 329.796 331.011 325.543C331.018 325.479 331.018 325.414 331.011 325.349C332.629 325.686 334.276 325.858 335.929 325.862C341.306 325.79 346.541 324.127 350.974 321.083C360.311 314.959 361.945 306.966 361.779 301.688C363.414 302.036 365.081 302.212 366.752 302.215C371.777 302.16 376.68 300.654 380.869 297.878C383.645 296.18 385.979 293.848 387.681 291.074C389.383 288.301 390.405 285.164 390.663 281.919C391.009 277.404 389.918 272.894 387.546 269.036C403.2 262.289 438.956 249.24 481.069 239.75C480.806 236.495 480.335 233.267 479.753 230.053C445.969 237.513 412.987 248.23 381.271 262.054" fill="#2D3277"/>
</svg>
