<svg width="512" height="512" viewBox="0 0 512 512" fill="none" xmlns="http://www.w3.org/2000/svg">
<path d="M350.259 194.308C378.933 214.795 414.061 226.849 452 226.849V153.88C444.82 153.881 437.658 153.133 430.634 151.645V209.083C392.697 209.083 357.574 197.028 328.892 176.543V325.452C328.892 399.944 268.474 460.327 193.949 460.327C166.141 460.327 140.296 451.925 118.826 437.515C143.33 462.557 177.504 478.092 215.31 478.092C289.84 478.092 350.262 417.709 350.262 343.214V194.308H350.259ZM376.617 120.691C361.962 104.689 352.341 84.0103 350.259 61.1488V51.7634H330.011C335.108 80.8204 352.492 105.645 376.617 120.691ZM165.963 380.352C157.776 369.622 153.351 356.497 153.371 343.001C153.371 308.931 181.006 281.307 215.1 281.307C221.454 281.305 227.77 282.277 233.825 284.198V209.598C226.749 208.628 219.607 208.217 212.468 208.368V266.433C206.408 264.513 200.089 263.537 193.734 263.543C159.64 263.543 132.006 291.165 132.006 325.239C132.006 349.332 145.819 370.191 165.963 380.352Z" fill="#FF004F"/>
<path d="M328.893 176.542C357.575 197.027 392.698 209.081 430.634 209.081V151.644C409.458 147.136 390.712 136.075 376.617 120.691C352.49 105.643 335.108 80.8189 330.011 51.7634H276.826V343.211C276.706 377.188 249.118 404.699 215.097 404.699C195.049 404.699 177.239 395.148 165.959 380.352C145.816 370.191 132.003 349.33 132.003 325.24C132.003 291.169 159.637 263.545 193.731 263.545C200.263 263.545 206.559 264.561 212.465 266.434V208.369C139.249 209.881 80.3652 269.675 80.3652 343.213C80.3652 379.922 95.0286 413.201 118.827 437.516C140.297 451.925 166.143 460.329 193.95 460.329C268.477 460.329 328.894 399.943 328.894 325.452V176.542H328.893Z" fill="black"/>
<path d="M430.634 151.644V136.113C411.538 136.142 392.818 130.797 376.616 120.689C390.958 136.383 409.843 147.204 430.634 151.644ZM330.011 51.7634C329.525 48.9865 329.151 46.1913 328.892 43.3854V34H255.458V325.451C255.341 359.423 227.754 386.934 193.73 386.934C183.742 386.934 174.31 384.564 165.958 380.353C177.238 395.148 195.049 404.698 215.097 404.698C249.115 404.698 276.707 377.189 276.826 343.213V51.7634H330.011ZM212.468 208.369V191.836C206.332 190.998 200.145 190.577 193.951 190.58C119.418 190.578 59 250.965 59 325.451C59 372.149 82.7455 413.304 118.829 437.513C95.0297 413.199 80.3664 379.919 80.3664 343.211C80.3664 269.675 139.248 209.881 212.468 208.369Z" fill="#00F2EA"/>
</svg>
