<svg width="512" height="512" viewBox="0 0 512 512" fill="none" xmlns="http://www.w3.org/2000/svg">
<path fill-rule="evenodd" clip-rule="evenodd" d="M325.279 362.569C322.795 383.076 310.378 399.499 291.143 407.723C280.431 412.304 266.049 414.777 254.665 414C236.905 413.321 220.221 408.999 204.842 401.099C199.347 398.275 191.157 392.637 184.868 387.356C183.275 386.021 183.086 385.166 184.14 383.67C184.709 382.811 185.758 381.262 188.078 377.862C191.442 372.93 191.861 372.311 192.24 371.733C193.316 370.08 195.065 369.936 196.789 371.294C196.971 371.435 196.971 371.435 197.107 371.542C197.39 371.762 197.39 371.762 198.058 372.281C198.734 372.808 199.134 373.119 199.297 373.24C215.882 386.239 235.2 393.736 254.701 394.485C281.834 394.115 301.345 381.908 304.841 363.163C308.685 342.534 292.501 324.713 260.838 314.78C250.935 311.675 225.904 301.649 221.289 298.94C199.616 286.215 189.483 269.548 190.923 248.962C193.13 220.425 219.604 199.142 253.056 198.999C268.015 198.969 282.943 202.08 297.284 208.127C302.362 210.268 311.429 215.205 314.559 217.544C316.362 218.868 316.718 220.413 315.684 222.078C315.107 223.044 314.153 224.576 312.142 227.768L312.12 227.803C309.473 232.008 309.39 232.139 308.783 233.123C307.734 234.721 306.5 234.87 304.608 233.669C289.262 223.353 272.25 218.163 253.541 217.789C230.247 218.25 212.789 232.122 211.641 251.018C211.336 268.086 224.128 280.546 251.762 290.047C307.853 308.083 329.318 329.229 325.279 362.569ZM256.006 67.9323C292.525 67.9323 322.291 102.61 323.684 146.019H188.33C189.723 102.61 219.49 67.9323 256.006 67.9323ZM445 154.181C445 149.673 441.372 146.019 436.899 146.019H349.166C347.014 88.7031 306.128 43 256.006 43C205.886 43 165.001 88.7031 162.848 146.019L74.9901 146.021C70.5849 146.101 67.0382 149.724 67.0382 154.181C67.0382 154.394 67.0461 154.605 67.062 154.813H67L79.5241 431.071C79.5257 431.84 79.5543 432.615 79.6116 433.395C79.6243 433.571 79.6386 433.746 79.6529 433.92L79.6799 434.503L79.7101 434.534C81.6131 453.757 95.5552 469.241 114.513 469.955L114.556 469.997H393.249C393.381 469.998 393.513 470 393.644 470C393.776 470 393.908 469.998 394.04 469.997H394.633L394.646 469.986C413.934 469.459 429.559 453.759 431.209 434.299L431.218 434.289L431.231 434.028C431.247 433.823 431.262 433.619 431.274 433.414C431.305 432.924 431.325 432.436 431.333 431.95L444.999 154.602H444.989C444.997 154.463 445 154.322 445 154.181Z" fill="#EE4D2D"/>
</svg>
